# xmcd
#
# Track frame offsets: 
#        150
#        13925
#        29936
#        47110
#        59788
#        80273
#        96006
#        112569
#        124358
#
# Disc length: 1942 seconds
#
# Revision: 0
# Processed by: cddbd v1.5.2PL0 Copyright (c) Steve Scherf et al.
# Submitted via: ExactAudioCopy v0.90b4
#
DISCID=79079409
DTITLE=Nina Kinert - Heartbreaktown
DYEAR=2004
DGENRE=Country
TTITLE0=Something to Hold on To
TTITLE1=When Your Faiyh Is Gone
TTITLE2=Heartbreaktown
TTITLE3=If It's the Right Time
TTITLE4=High Heels
TTITLE5=You Don't Have to Travel
TTITLE6=Hole in Me
TTITLE7=Until Jesus Comes
TTITLE8=You Still Love Her (Like She Loved You)
EXTD=
EXTT0=
EXTT1=
EXTT2=
EXTT3=
EXTT4=
EXTT5=
EXTT6=
EXTT7=
EXTT8=
PLAYORDER=
